<svg id="Capa_1" data-name="Capa 1" xmlns="http://www.w3.org/2000/svg" viewBox="0 0 850.14 1080"><defs><style>.cls-1{fill:#00a4a1;}.cls-2{fill:#2c3265;}</style></defs><path class="cls-1" d="M425.41,46.78C268.52,46.78,141.33,174,141.33,330.87S268.52,615,425.41,615,709.49,487.76,709.49,330.87,582.31,46.78,425.41,46.78Zm0,539.18c-140.88,0-255.09-114.21-255.09-255.09S284.53,75.78,425.41,75.78,680.5,190,680.5,330.87,566.29,586,425.41,586Z"/><circle class="cls-1" cx="423.4" cy="230.9" r="18.13"/><circle class="cls-1" cx="535.11" cy="270.15" r="18.13"/><circle class="cls-1" cx="311.76" cy="269.21" r="18.13"/><path class="cls-1" d="M272.68,387.89l.4-29.74a29.24,29.24,0,0,1,3.35-13.28c4.69-8.84,15-22.08,34.61-21.92s30.33,13.15,35.19,21.71a26.07,26.07,0,0,1,3.39,12.91v58.72a20.87,20.87,0,0,0,4.83,13.62,15.21,15.21,0,0,0,11.49,5.64c9.5.21,13.58-6.55,15.22-11a16.7,16.7,0,0,0,1-5.82v-84.4a58.27,58.27,0,0,1,3.18-19.19c4.52-13,15-31.32,38.06-31,24,.31,34.93,17.79,39.51,29.23a42.15,42.15,0,0,1,3,15.7v89.35s-1.64,15.93,16.16,17.34c19.11-.47,18.93-16.85,18.95-19.72l.39-57a37.28,37.28,0,0,1,8.52-23.84c5.47-6.48,14.25-12.33,28.17-12.44,21.52-.16,31.41,14.63,35.49,23.88a30.91,30.91,0,0,1,2.55,12.25l.27,29,70.73-1.64a229.18,229.18,0,0,0,6.77-55.38c0-126.19-102.29-228.48-228.48-228.48S196.93,204.68,196.93,330.87A228.68,228.68,0,0,0,204,387.6ZM539.29,229.34a41,41,0,1,1-45,45A41.15,41.15,0,0,1,539.29,229.34ZM427.58,190.09a41,41,0,1,1-45,45A41.15,41.15,0,0,1,427.58,190.09ZM316,228.4a41,41,0,1,1-45,45A41.15,41.15,0,0,1,316,228.4Z"/><path class="cls-1" d="M553.65,414.53l-.14-41.1a16.34,16.34,0,0,0-16-16.37h-.42c-7.59,0-11.55,4.52-13.59,8.67a21.55,21.55,0,0,0-2.08,9.36l-.39,58.53a38.18,38.18,0,0,1-37.83,38.22c-7.24.12-14.8-.84-19.78-3.27-12.66-6.19-22.55-19.25-22.52-33.35l.21-96.9a13.5,13.5,0,0,0-2.16-7.5,15.77,15.77,0,0,0-14.15-7.56,16.8,16.8,0,0,0-13.38,7.34,15,15,0,0,0-2.68,8.68l-.34,94A35.53,35.53,0,0,1,401,455.13c-6.15,7.82-16.62,16.27-33.13,16.4-21.21.16-31.85-14.17-36.42-23.14a27.28,27.28,0,0,1-2.91-12.45l.06-64.1a16.5,16.5,0,0,0-3.25-10c-2.59-3.42-7.11-5.64-14.49-5.76-6.64-.11-10.73,2.68-13.22,5.73A16.8,16.8,0,0,0,294,372.73l.65,41.33-85.59-9.49c30.66,90,115.93,154.78,216.32,154.78S611,494.64,641.71,404.67Z"/><path class="cls-2" d="M251.05,665.13c4.13,0,7.27-.19,10.39,0a75.12,75.12,0,0,1,39.76,14.11,107.58,107.58,0,0,1,10.48,8.26,78.67,78.67,0,0,1,13.68,17c1.22,2,2.5,4.06,3.57,6.18,1.47,2.9,1.25,3.77-1.52,5.42-5.23,3.13-10.56,6.1-15.82,9.19C305.05,729.16,298.5,733,292,737c-3.76,2.29-4.85,2.15-7-1.78-4.12-7.62-9.16-14.29-17.57-17.66-9.62-3.85-19.4-4.52-29.1-.75-5.14,2-8.63,5.91-8.87,11.83-.22,5.41,1.53,10.14,6.28,13,6.21,3.78,12.55,7.34,19.62,9.48,11.22,3.4,22.46,6.79,33.47,10.78,12.24,4.43,23.6,10.56,32.91,20a48.35,48.35,0,0,1,12.13,21.58,70.4,70.4,0,0,1,.53,35,56.91,56.91,0,0,1-23.76,35,82.83,82.83,0,0,1-25.39,11.66A114.58,114.58,0,0,1,208,878.45c-12-5.43-21.19-14.1-28.84-24.69a84.79,84.79,0,0,1-8.54-15.12c-1.68-3.74-1.64-4.26,2-6.41,8.08-4.75,16.25-9.36,24.38-14,3.74-2.15,7.44-4.35,11.19-6.47,4.35-2.46,4.92-2.3,7.19,2.06,3.48,6.69,7.73,12.74,14.08,17,6.89,4.63,14.21,8.07,22.78,7.94,4.32-.06,8.65,0,13-.06a23.88,23.88,0,0,0,14.07-4.91c7.93-5.76,7.72-17.07-.19-22.89-7.23-5.32-15.73-7.63-24-10.36-3.66-1.2-7.39-2.15-11-3.42-5-1.74-10.28-2.91-15.31-4.66-11.45-4-22.54-8.87-31.56-17.12-11.71-10.7-18.36-24-18.75-40.15-.18-7.61-.1-15.24,2-22.63A61.1,61.1,0,0,1,199,683.12a74.63,74.63,0,0,1,29.67-15.83A64.6,64.6,0,0,1,251.05,665.13Z"/><path class="cls-2" d="M690.88,665.13c4.13,0,7.27-.19,10.39,0A75.18,75.18,0,0,1,741,679.27a108.66,108.66,0,0,1,10.47,8.26,78.67,78.67,0,0,1,13.68,17c1.22,2,2.5,4.06,3.57,6.18,1.47,2.9,1.25,3.77-1.51,5.42-5.24,3.13-10.57,6.1-15.83,9.19-6.54,3.84-13.09,7.68-19.56,11.64-3.75,2.29-4.85,2.15-7-1.78-4.13-7.62-9.17-14.29-17.58-17.66-9.62-3.85-19.4-4.52-29.1-.75-5.14,2-8.63,5.91-8.87,11.83-.22,5.41,1.53,10.14,6.28,13,6.22,3.78,12.55,7.34,19.62,9.48,11.22,3.4,22.46,6.79,33.47,10.78,12.24,4.43,23.6,10.56,32.91,20a48.26,48.26,0,0,1,12.13,21.58,70.28,70.28,0,0,1,.53,35,56.83,56.83,0,0,1-23.76,35,82.77,82.77,0,0,1-25.38,11.66,114.6,114.6,0,0,1-77.35-6.62C635.84,873,626.6,864.35,619,853.76a84.79,84.79,0,0,1-8.54-15.12c-1.68-3.74-1.64-4.26,2-6.41,8.09-4.75,16.26-9.36,24.38-14,3.74-2.15,7.44-4.35,11.19-6.47,4.35-2.46,4.92-2.3,7.19,2.06,3.48,6.69,7.73,12.74,14.09,17,6.88,4.63,14.2,8.07,22.77,7.94,4.32-.06,8.65,0,13-.06a23.86,23.86,0,0,0,14.07-4.91c7.93-5.76,7.72-17.07-.18-22.89-7.24-5.32-15.73-7.63-24-10.36-3.65-1.2-7.39-2.15-11-3.42-5-1.74-10.27-2.91-15.31-4.66-11.45-4-22.53-8.87-31.56-17.12-11.71-10.7-18.36-24-18.75-40.15-.18-7.61-.09-15.24,2-22.63a61.1,61.1,0,0,1,18.55-29.42,74.69,74.69,0,0,1,29.67-15.83A64.62,64.62,0,0,1,690.88,665.13Z"/><path class="cls-2" d="M79.28,777.24V673.87c0-7.83.12-7.93,7.75-7.93H122.9c1.33,0,2.66,0,4,.14a3,3,0,0,1,2.85,3c.13,1.54.15,3.09.15,4.63V881.84c0,.77,0,1.55,0,2.32-.16,4-.64,4.68-4.36,4.7q-20.81.09-41.63,0c-4,0-4.57-.72-4.58-5.46q0-25.26,0-50.53Q79.29,805.06,79.28,777.24Z"/><path class="cls-2" d="M474.93,664.93A112,112,0,1,0,587,776.92,112,112,0,0,0,474.93,664.93Zm-.4,175.89c-34.37,0-62.24-28.35-62.24-63.33s27.87-63.32,62.24-63.32,62.25,28.35,62.25,63.32S508.91,840.82,474.53,840.82Z"/><path class="cls-2" d="M283.8,981.29V939.34c0-1.26-.05-2.52,0-3.77.23-4,1.28-5.32,5.07-5.29,13.5.12,27-.8,40.5.52,2,.2,4.08.22,6.12.23a36.58,36.58,0,0,1,22.7,7.78,25.14,25.14,0,0,1,9.33,16.38,60.39,60.39,0,0,1,0,19.67c-1.06,6.46-4.44,11.68-9.1,16.07-1.8,1.69-3.57,3.54-5.95,4.56-2,.86-1.83,2.12-.67,3.72,6.33,8.77,12.59,17.59,18.88,26.39a22.17,22.17,0,0,1,1.87,2.71c1.18,2.34.52,3.78-2.06,3.82-7.86.14-15.71.06-23.57,0a4.62,4.62,0,0,1-3.85-2.34c-5.57-8-11.2-15.9-16.75-23.89-1.25-1.8-2.13-4.11-4.45-4.62a23.77,23.77,0,0,0-9.83,0c-2.17.46-2,2.59-2,4.29,0,6.45,0,12.89,0,19.33,0,1.26,0,2.52-.14,3.77a3.45,3.45,0,0,1-3.7,3.47c-6.13,0-12.26,0-18.38,0a3.56,3.56,0,0,1-3.94-3.75c-.08-1.41-.1-2.82-.1-4.23Zm26.3-15.76c0,3.29-.12,6.58,0,9.86.13,2.88.83,3.63,3.7,3.73a95.81,95.81,0,0,0,20.58-1,9,9,0,0,0,4.16-2c4.92-4,6.24-14.17,2.5-19.31a9.16,9.16,0,0,0-4.53-3.06c-7.44-2.85-15.14-1.68-22.74-1.78-2.86,0-3.54.8-3.67,3.73C310,959,310.1,962.25,310.1,965.53Z"/><path class="cls-2" d="M273.61,999.43c0,4.3-.14,8.61,0,12.91a9.22,9.22,0,0,1-3.7,8c-6.84,5.63-14.29,9.66-23.21,11.39a74.34,74.34,0,0,1-15.47,1.49c-16.39-.24-30-6.28-40.43-19.22-6.86-8.48-10-18.1-10.6-28.81-.5-9.21.71-18.08,4.68-26.47,4.33-9.13,11.05-16.08,19.52-21.52,10.6-6.83,22.17-8.1,34.42-7a49.23,49.23,0,0,1,24.45,8.6c8.6,6.05,7,5,2.61,12.35a86.09,86.09,0,0,1-5.74,8.33c-2.06,2.69-3,2.82-5.6.56-8.35-7.25-18.31-8.63-28.53-6.85-6.91,1.19-12.48,5.51-16.39,11.72-5.6,8.87-5.92,18.45-3.09,28a24.78,24.78,0,0,0,12.34,14.9c4.89,2.6,9.91,4.58,15.75,4a58.35,58.35,0,0,0,11.18-2.29c2.07-.58,3.58-3.75,3.58-5.7,0-5.07,0-10.14,0-15.21,0-1.39-.06-2.78.06-4.15.28-3.13.88-3.86,3.92-3.93q8.07-.2,16.13,0c3.32.08,3.93.78,4,4.25.1,4.92,0,9.83,0,14.75Z"/><path class="cls-2" d="M577.82,964.88c0,8.2,0,16.41,0,24.61a45.29,45.29,0,0,1-6.72,24.2c-5.32,8.59-13.16,13.61-22.6,16.59a46.46,46.46,0,0,1-17.4,1.79c-13.1-.92-24-5.94-32-16.83-4.07-5.54-5.84-11.63-7.26-18.25-2.15-10-1.12-20-1.36-30-.22-9.59,0-19.2,0-28.8,0-1.23-.05-2.48.07-3.71.33-3.17,1.48-4.4,4.76-4.51q7.42-.24,14.86,0c4,.1,5.07,1.32,5.3,5.44.07,1.24,0,2.48,0,3.72,0,12.38.15,24.77-.06,37.15a137.2,137.2,0,0,0,1.16,18c1.16,10,10.92,17.64,20.34,16.08a19.2,19.2,0,0,0,14.77-13.25,50.58,50.58,0,0,0,1.86-14.67c-.15-15,0-30,0-45.05,0-1.39,0-2.79.11-4.18a3.1,3.1,0,0,1,3.27-3.21q8.6-.12,17.18,0c2.37,0,3.71,1.34,3.75,3.8,0,1.24.05,2.48.05,3.71q0,13.71,0,27.41Z"/><path class="cls-2" d="M595.59,980.71q0-21.29,0-42.55c0-1.25-.05-2.5,0-3.74.23-3.5,1-4.24,4.61-4.45,1.7-.1,3.42,0,5.14,0,8.1,0,16.22-.26,24.31.07,7.89.32,15.85.26,23.55,2.64,10.23,3.16,17.62,9,21.62,19.43,3.18,8.3,3.16,16.83,1.61,24.83-2.62,13.56-9.81,22-25.62,25.39-8.54,1.82-17,1.4-25.5,1.68-5,.16-5.16.27-5.2,5.41,0,5.61,0,11.22,0,16.83-.06,4.42-.5,4.88-4.79,5-4.68.07-9.35,0-14,0-5.19-.05-5.66-.48-5.69-5.58-.05-9,0-18.08,0-27.12Zm24.56-14.15h0v12.12c0,1.91.58,3.51,2.8,3.53,6.36,0,12.74.69,19.06-.55a9.9,9.9,0,0,0,6.67-3.92c2.84-4.25,4.56-9,3.41-14.1-1-4.21-2.63-8.33-7.37-10-6.73-2.46-13.7-2.3-20.68-2.11-3.27.09-3.77.62-3.87,3.89C620.07,959.09,620.15,962.83,620.15,966.56Z"/><path class="cls-2" d="M429.48,929.83A51.19,51.19,0,1,0,480.71,981,51.2,51.2,0,0,0,429.48,929.83Zm-.18,80.4a28.95,28.95,0,1,1,28.46-29A28.7,28.7,0,0,1,429.3,1010.23Z"/></svg>